<?xml version="1.0" encoding="utf-8"?>
<!-- Generator: Adobe Illustrator 12.0.1, SVG Export Plug-In . SVG Version: 6.00 Build 51448)  -->
<!DOCTYPE svg PUBLIC "-//W3C//DTD SVG 1.1 Tiny//EN" "http://www.w3.org/Graphics/SVG/1.1/DTD/svg11-tiny.dtd" [
	<!ENTITY ns_svg "http://www.w3.org/2000/svg">
	<!ENTITY ns_xlink "http://www.w3.org/1999/xlink">
]>
<svg  version="1.1" baseProfile="tiny" id="Layer_1" xmlns="&ns_svg;" xmlns:xlink="&ns_xlink;" width="325.603" height="199.677"
	 viewBox="0 0 325.603 199.677" xml:space="preserve">
<g>
	<g>
		<g>
			<path fill="#FFFFFF" d="M37.869,148.343c-2.858,0.275-5.657,1.012-8.281,2.113c-2.643,1.109-5.119,2.592-7.303,4.354
				c-2.207,1.779-4.121,3.85-5.605,6.107c-1.504,2.289-2.569,4.775-3.048,7.35c-0.486,2.617-0.325,5.076,0.395,7.279
				c0.728,2.229,2.024,4.188,3.788,5.773c1.777,1.596,4.021,2.809,6.621,3.529c2.606,0.725,5.557,0.953,8.729,0.586
				c3.158-0.363,6.223-1.279,9.05-2.619c2.804-1.328,5.361-3.066,7.538-5.082c2.152-1.992,3.927-4.252,5.203-6.654
				c1.259-2.369,2.031-4.875,2.203-7.402c0.17-2.488-0.26-4.768-1.172-6.766c-0.902-1.977-2.281-3.682-4.027-5.043
				c-1.735-1.354-3.84-2.373-6.218-2.984C43.37,148.275,40.715,148.068,37.869,148.343 M280.015,124.947
				c-2.195,0.211-4.063,0.801-5.563,1.688c-1.511,0.893-2.654,2.09-3.387,3.516c-0.739,1.438-1.061,3.109-0.912,4.936
				c0.149,1.846,0.779,3.852,1.944,5.928c1.18,2.105,2.796,4.084,4.713,5.857c1.936,1.791,4.172,3.365,6.564,4.643
				c2.408,1.287,4.965,2.266,7.519,2.855c2.56,0.592,5.104,0.789,7.478,0.518c2.369-0.273,4.335-0.988,5.857-2.043
				c1.512-1.047,2.58-2.422,3.174-4.025c0.588-1.588,0.708-3.395,0.334-5.322c-0.369-1.904-1.221-3.926-2.579-5.969
				c-1.341-2.016-3.055-3.871-5-5.5c-1.928-1.613-4.089-3.012-6.352-4.131c-2.248-1.115-4.604-1.957-6.942-2.469
				C284.53,124.916,282.206,124.734,280.015,124.947 M32.983,186.869c-3.403,0.395-6.568,0.148-9.363-0.631
				c-2.788-0.779-5.192-2.084-7.093-3.803c-1.886-1.707-3.268-3.813-4.038-6.205c-0.762-2.365-0.924-5-0.392-7.801
				c0.524-2.754,1.673-5.41,3.29-7.854c1.594-2.408,3.645-4.615,6.006-6.51c2.333-1.875,4.978-3.451,7.797-4.631
				c2.797-1.168,5.78-1.949,8.824-2.242c3.031-0.291,5.859-0.07,8.386,0.578c2.534,0.65,4.779,1.732,6.632,3.172
				c1.866,1.447,3.342,3.264,4.313,5.367c0.981,2.127,1.45,4.559,1.28,7.213c-0.173,2.697-0.987,5.377-2.324,7.914
				c-1.356,2.574-3.248,5-5.547,7.139c-2.327,2.168-5.063,4.037-8.066,5.469C39.658,185.486,36.37,186.476,32.983,186.869
				 M65.118,139.689l-52.368,4.896L1.999,197.949l60.597-7.25L65.118,139.689 M116.039,134.925l-49.561,4.637l-2.315,50.949
				l56.883-6.805L116.039,134.925 M164.422,130.402l-47.093,4.404l5.192,48.723l53.637-6.418L164.422,130.402 M195.604,148.267
				l11.849-16.412l1.105,0.625l-11.802,16.48l23.54,14.158l-0.581,0.963l-23.593-14.234l-13.236,18.48l-1.205-0.777l13.285-18.402
				l-21.918-13.225l0.683-0.813L195.604,148.267 M210.39,126.103l-44.743,4.184l11.902,46.658l50.591-6.053L210.39,126.103
				 M242.97,143.292l9.17-15.754l1.161,0.602l-9.127,15.82l24.579,13.598l-0.441,0.922l-24.627-13.67l-10.205,17.686l-1.253-0.746
				l10.25-17.611l-22.922-12.725l0.532-0.779L242.97,143.292 M254.048,122.019l-42.493,3.975l17.897,44.742l47.718-5.711
				L254.048,122.019 M299.07,156.025c-2.544,0.295-5.272,0.082-8.019-0.555c-2.739-0.635-5.481-1.689-8.063-3.072
				c-2.563-1.373-4.957-3.066-7.027-4.988c-2.048-1.9-3.771-4.021-5.026-6.273c-1.237-2.221-1.902-4.363-2.054-6.336
				c-0.15-1.947,0.2-3.73,0.995-5.262c0.787-1.516,2.013-2.791,3.626-3.74c1.603-0.943,3.595-1.568,5.935-1.793
				c2.336-0.225,4.813-0.031,7.3,0.512c2.492,0.545,5.006,1.441,7.405,2.627c2.415,1.191,4.724,2.68,6.785,4.398
				c2.081,1.736,3.917,3.713,5.355,5.865c1.459,2.184,2.377,4.344,2.779,6.383c0.407,2.064,0.286,4.002-0.337,5.707
				c-0.629,1.723-1.769,3.203-3.384,4.328C303.714,154.96,301.608,155.732,299.07,156.025 M295.7,118.125l-40.544,3.791
				l23.255,42.961l45.232-5.412L295.7,118.125 M91.417,102.638c-2.379,0.18-4.648,0.701-6.72,1.496
				c-2.084,0.801-3.976,1.879-5.58,3.164c-1.62,1.299-2.95,2.811-3.891,4.463c-0.952,1.672-1.506,3.488-1.554,5.373
				c-0.049,1.91,0.423,3.709,1.326,5.322c0.912,1.629,2.26,3.064,3.946,4.23c1.697,1.176,3.729,2.074,5.991,2.623
				c2.267,0.549,4.753,0.742,7.347,0.51c2.59-0.232,5.032-0.867,7.222-1.809c2.176-0.936,4.097-2.172,5.667-3.617
				c1.555-1.43,2.764-3.063,3.538-4.807c0.766-1.725,1.107-3.557,0.941-5.412c-0.163-1.834-0.806-3.521-1.822-5.008
				c-1.007-1.473-2.384-2.75-4.032-3.777c-1.638-1.023-3.549-1.801-5.641-2.277C96.069,102.636,93.794,102.458,91.417,102.638
				 M178.471,96.069c-2.171,0.163-4.142,0.647-5.851,1.387c-1.721,0.742-3.182,1.745-4.317,2.941
				c-1.146,1.206-1.963,2.612-2.378,4.149c-0.419,1.555-0.428,3.242,0.051,4.994c0.485,1.775,1.423,3.445,2.709,4.945
				c1.298,1.512,2.947,2.846,4.835,3.932c1.899,1.092,4.033,1.93,6.284,2.441c2.256,0.512,4.618,0.697,6.965,0.486
				c2.338-0.211,4.43-0.791,6.206-1.66c1.765-0.863,3.211-2.006,4.276-3.342c1.056-1.326,1.734-2.838,1.979-4.457
				c0.242-1.6,0.06-3.303-0.602-5.031c-0.653-1.705-1.715-3.279-3.069-4.666c-1.343-1.374-2.978-2.569-4.796-3.53
				c-1.809-0.957-3.804-1.686-5.885-2.135C182.803,96.076,180.633,95.905,178.471,96.069 M219.238,92.993
				c-2.072,0.156-3.907,0.623-5.456,1.335c-1.558,0.718-2.83,1.686-3.761,2.841c-0.938,1.165-1.531,2.522-1.718,4.006
				c-0.188,1.5,0.039,3.131,0.746,4.822c0.716,1.713,1.854,3.326,3.306,4.773c1.464,1.459,3.242,2.746,5.215,3.795
				c1.984,1.055,4.159,1.863,6.4,2.357c2.246,0.496,4.55,0.676,6.781,0.477c2.229-0.199,4.168-0.758,5.762-1.594
				c1.585-0.83,2.823-1.93,3.667-3.217c0.836-1.277,1.283-2.736,1.297-4.297c0.014-1.545-0.397-3.189-1.273-4.857
				c-0.865-1.648-2.106-3.169-3.604-4.51c-1.486-1.329-3.229-2.485-5.119-3.417c-1.879-0.927-3.908-1.634-5.981-2.069
				C223.429,93.003,221.308,92.837,219.238,92.993 M67.103,99.549L21.148,102.9l-8.17,40.553l52.193-4.852L67.103,99.549
				 M92.316,130.843c-2.781,0.252-5.447,0.043-7.876-0.547c-2.424-0.588-4.602-1.555-6.417-2.816
				c-1.803-1.254-3.244-2.795-4.214-4.543c-0.961-1.729-1.459-3.654-1.398-5.699c0.061-2.016,0.661-3.957,1.684-5.74
				c1.012-1.764,2.438-3.375,4.171-4.758c1.716-1.369,3.736-2.518,5.961-3.367c2.209-0.846,4.628-1.402,7.165-1.592
				c2.532-0.189,4.957,0,7.182,0.508c2.229,0.506,4.269,1.334,6.017,2.422c1.76,1.094,3.233,2.455,4.313,4.023
				c1.09,1.584,1.784,3.385,1.965,5.34c0.185,1.984-0.172,3.941-0.984,5.787c-0.822,1.867-2.109,3.617-3.769,5.152
				c-1.677,1.551-3.731,2.879-6.06,3.885C97.708,129.912,95.091,130.593,92.316,130.843 M112.07,96.271l-43.77,3.191l-1.772,39.014
				l49.403-4.594L112.07,96.271 M137.829,111.214l13.469-13.178l0.92,0.518l-13.439,13.227l19.313,11.541l-0.686,0.764
				l-19.346-11.598l-14.907,14.672l-0.98-0.627l14.937-14.613l-18.099-10.852l0.748-0.653L137.829,111.214 M155.058,93.136
				l-41.844,3.052l4.004,37.576l46.952-4.365L155.058,93.136 M187.08,122.292c-2.515,0.229-5.048,0.029-7.466-0.521
				c-2.412-0.549-4.699-1.449-6.733-2.621c-2.021-1.166-3.784-2.598-5.17-4.221c-1.371-1.605-2.369-3.395-2.881-5.293
				c-0.505-1.875-0.488-3.68-0.033-5.338c0.449-1.641,1.327-3.139,2.555-4.425c1.217-1.273,2.779-2.341,4.616-3.131
				c1.825-0.785,3.927-1.3,6.24-1.473c2.305-0.173,4.617,0.009,6.831,0.485c2.218,0.478,4.347,1.254,6.276,2.271
				c1.941,1.024,3.688,2.296,5.125,3.76c1.45,1.479,2.589,3.156,3.292,4.979c0.714,1.844,0.915,3.664,0.663,5.377
				c-0.256,1.734-0.976,3.355-2.101,4.775c-1.136,1.436-2.681,2.662-4.568,3.59C191.825,121.441,189.585,122.068,187.08,122.292
				 M196.138,90.141l-39.987,2.916l9.241,36.228l44.615-4.148L196.138,90.141 M231.183,118.314c-2.392,0.215-4.86,0.023-7.269-0.512
				c-2.402-0.531-4.733-1.4-6.858-2.531c-2.112-1.125-4.014-2.508-5.577-4.072c-1.549-1.551-2.763-3.277-3.521-5.111
				c-0.75-1.809-0.985-3.551-0.778-5.153c0.206-1.584,0.845-3.031,1.852-4.273c0.997-1.229,2.358-2.26,4.022-3.022
				c1.653-0.758,3.611-1.254,5.82-1.42c2.206-0.165,4.468,0.013,6.675,0.476c2.212,0.464,4.377,1.217,6.384,2.202
				c2.018,0.991,3.882,2.223,5.472,3.64c1.604,1.43,2.936,3.051,3.865,4.811c0.942,1.783,1.387,3.541,1.378,5.193
				c-0.009,1.672-0.482,3.234-1.373,4.604c-0.9,1.383-2.224,2.563-3.919,3.455C235.648,117.498,233.57,118.099,231.183,118.314
				 M235.37,87.28l-38.188,2.784l13.986,34.964l42.38-3.939L235.37,87.28 M272.998,84.536l-36.629,2.671l18.284,33.779l40.44-3.76
				L272.998,84.536 M130.063,68.282c-2.042,0.12-3.947,0.506-5.648,1.105c-1.711,0.602-3.221,1.42-4.456,2.399
				c-1.246,0.987-2.215,2.141-2.832,3.404c-0.622,1.276-0.885,2.665-0.705,4.108c0.182,1.459,0.798,2.836,1.761,4.075
				c0.971,1.248,2.292,2.352,3.871,3.253c1.587,0.906,3.429,1.606,5.428,2.041c2.002,0.436,4.154,0.604,6.352,0.45
				c2.19-0.152,4.212-0.611,5.988-1.308c1.765-0.691,3.282-1.614,4.478-2.7c1.186-1.077,2.054-2.312,2.538-3.637
				c0.479-1.313,0.582-2.714,0.244-4.14c-0.334-1.41-1.068-2.714-2.104-3.868c-1.029-1.145-2.358-2.144-3.895-2.952
				c-1.53-0.804-3.27-1.422-5.133-1.809C134.089,68.32,132.099,68.163,130.063,68.282 M168.605,66.02
				c-1.959,0.115-3.748,0.489-5.308,1.069c-1.568,0.583-2.911,1.376-3.965,2.326c-1.063,0.957-1.834,2.076-2.247,3.301
				c-0.417,1.237-0.47,2.583-0.088,3.982c0.387,1.415,1.182,2.75,2.291,3.949c1.118,1.21,2.554,2.279,4.209,3.153
				c1.664,0.88,3.545,1.558,5.538,1.98c1.997,0.424,4.101,0.589,6.201,0.441c2.095-0.146,3.983-0.589,5.601-1.261
				c1.607-0.668,2.941-1.562,3.943-2.611c0.993-1.043,1.657-2.238,1.937-3.522c0.277-1.272,0.177-2.63-0.353-4.013
				c-0.523-1.368-1.42-2.634-2.587-3.754c-1.158-1.111-2.587-2.082-4.19-2.867c-1.595-0.782-3.367-1.383-5.226-1.76
				C172.506,66.059,170.558,65.905,168.605,66.02 M68.662,68.017l-40.953,2.322l-6.384,31.686l45.82-3.32L68.662,68.017
				 M108.936,65.733l-39.203,2.223l-1.393,30.662l43.647-3.164L108.936,65.733 M133.974,89.895
				c-2.355,0.166-4.661-0.015-6.807-0.483c-2.142-0.467-4.115-1.218-5.813-2.191c-1.689-0.968-3.101-2.151-4.137-3.489
				c-1.026-1.326-1.68-2.801-1.869-4.362c-0.187-1.543,0.1-3.027,0.771-4.39c0.664-1.348,1.704-2.579,3.038-3.631
				c1.322-1.043,2.935-1.915,4.762-2.555c1.815-0.637,3.848-1.048,6.025-1.175c2.17-0.126,4.291,0.041,6.275,0.452
				c1.987,0.412,3.844,1.07,5.477,1.926c1.642,0.861,3.063,1.925,4.164,3.145c1.111,1.23,1.899,2.622,2.262,4.127
				c0.366,1.523,0.263,3.021-0.245,4.425c-0.512,1.419-1.437,2.742-2.702,3.896c-1.277,1.165-2.898,2.156-4.787,2.899
				C138.486,89.235,136.32,89.729,133.974,89.895 M147.621,63.541l-37.66,2.135l3.165,29.697l41.733-3.025L147.621,63.541
				 M175.484,86.974c-2.252,0.158-4.505-0.019-6.646-0.473c-2.136-0.454-4.15-1.183-5.933-2.126c-1.771-0.938-3.306-2.086-4.5-3.383
				c-1.184-1.285-2.028-2.714-2.437-4.228c-0.403-1.496-0.341-2.935,0.11-4.255c0.447-1.308,1.275-2.5,2.413-3.521
				c1.129-1.012,2.563-1.856,4.238-2.477c1.666-0.617,3.573-1.015,5.662-1.137c2.082-0.121,4.159,0.042,6.138,0.443
				c1.982,0.401,3.873,1.042,5.576,1.874c1.711,0.837,3.238,1.871,4.478,3.055c1.25,1.194,2.211,2.545,2.775,4.005
				c0.571,1.477,0.684,2.929,0.393,4.29c-0.294,1.375-0.999,2.656-2.059,3.773c-1.068,1.127-2.494,2.086-4.214,2.804
				C179.75,86.34,177.728,86.815,175.484,86.974 M184.762,61.435l-36.155,2.05l7.343,28.784l39.886-2.892L184.762,61.435
				 M220.388,59.415l-34.681,1.966l11.17,27.921l38.096-2.762L220.388,59.415 M254.703,57.469l-33.405,1.894l14.671,27.104
				l36.545-2.648L254.703,57.469 M89.561,44.362c-1.92,0.086-3.751,0.397-5.421,0.886c-1.679,0.492-3.2,1.166-4.488,1.976
				c-1.298,0.816-2.361,1.772-3.11,2.822c-0.755,1.059-1.19,2.214-1.222,3.417c-0.031,1.213,0.352,2.361,1.077,3.395
				c0.73,1.042,1.805,1.966,3.145,2.725c1.347,0.763,2.958,1.355,4.75,1.73c1.795,0.375,3.765,0.531,5.822,0.419
				c2.055-0.111,3.997-0.477,5.745-1.04c1.738-0.561,3.279-1.315,4.546-2.208c1.257-0.885,2.243-1.904,2.885-3.002
				c0.637-1.088,0.936-2.252,0.83-3.441c-0.105-1.178-0.598-2.271-1.396-3.242c-0.792-0.963-1.885-1.808-3.201-2.494
				c-1.31-0.684-2.844-1.212-4.528-1.549C93.315,44.421,91.479,44.276,89.561,44.362 M226.822,38.189
				c-1.655,0.074-3.112,0.352-4.333,0.791c-1.226,0.441-2.217,1.047-2.928,1.776c-0.717,0.734-1.151,1.595-1.259,2.54
				c-0.108,0.953,0.117,1.992,0.724,3.074c0.612,1.091,1.555,2.123,2.737,3.053c1.191,0.937,2.625,1.768,4.204,2.451
				c1.586,0.687,3.316,1.221,5.091,1.561c1.778,0.34,3.596,0.483,5.35,0.389s3.275-0.418,4.523-0.919
				c1.241-0.498,2.208-1.171,2.862-1.969c0.65-0.792,0.991-1.705,0.988-2.69c-0.003-0.977-0.345-2.024-1.057-3.095
				c-0.706-1.062-1.712-2.049-2.924-2.926c-1.203-0.871-2.612-1.636-4.137-2.259c-1.519-0.621-3.154-1.102-4.822-1.41
				C230.178,38.25,228.476,38.115,226.822,38.189 M69.923,42.518L32.99,44.126l-5.14,25.511l40.845-2.301L69.923,42.518
				 M90.135,62.375c-2.204,0.12-4.315-0.046-6.238-0.449c-1.919-0.402-3.645-1.038-5.086-1.855
				c-1.434-0.813-2.582-1.805-3.359-2.921c-0.771-1.108-1.177-2.337-1.139-3.637c0.039-1.286,0.509-2.521,1.321-3.652
				c0.804-1.121,1.943-2.141,3.332-3.01c1.377-0.863,3.003-1.58,4.795-2.104c1.783-0.52,3.735-0.85,5.783-0.942
				c2.045-0.091,4.002,0.063,5.795,0.42c1.795,0.358,3.433,0.921,4.832,1.649c1.406,0.731,2.575,1.631,3.423,2.658
				c0.855,1.035,1.386,2.203,1.503,3.461c0.118,1.271-0.197,2.517-0.873,3.681c-0.683,1.175-1.733,2.267-3.076,3.215
				c-1.354,0.957-3.001,1.766-4.861,2.368C94.416,61.863,92.336,62.256,90.135,62.375 M106.389,40.929L70.89,42.475l-1.127,24.8
				l39.104-2.203L106.389,40.929 M141.555,39.397l-34.235,1.491l2.571,24.126l37.569-2.117L141.555,39.397 M162.928,48.731
				l9.789-8.167l0.76,0.347l-9.768,8.189l15.753,7.433l-0.493,0.462l-15.777-7.46l-10.599,8.887l-0.805-0.398l10.619-8.859
				l-14.969-7.078l0.538-0.41L162.928,48.731 M175.442,37.921l-32.99,1.437l5.99,23.484l36.071-2.032L175.442,37.921 M197.559,47.03
				l8.341-7.957l0.794,0.338l-8.323,7.978l16.32,7.247l-0.421,0.45l-16.341-7.273l-9.02,8.645l-0.827-0.389l9.034-8.618
				l-15.52-6.907l0.456-0.4L197.559,47.03 M208.067,36.5l-31.76,1.383l9.15,22.874l34.604-1.95L208.067,36.5 M236.762,54.401
				c-1.88,0.102-3.826-0.051-5.73-0.416c-1.901-0.364-3.754-0.938-5.452-1.673c-1.69-0.732-3.223-1.624-4.496-2.628
				c-1.264-0.996-2.269-2.102-2.92-3.27c-0.646-1.158-0.882-2.269-0.762-3.287c0.118-1.009,0.587-1.927,1.355-2.709
				c0.762-0.777,1.821-1.422,3.132-1.892c1.304-0.467,2.859-0.762,4.624-0.841c1.764-0.079,3.579,0.065,5.355,0.392
				c1.779,0.328,3.526,0.84,5.146,1.5c1.629,0.664,3.136,1.479,4.423,2.408c1.298,0.936,2.376,1.99,3.135,3.125
				c0.766,1.145,1.134,2.265,1.141,3.311c0.007,1.055-0.355,2.033-1.049,2.881c-0.698,0.855-1.732,1.577-3.061,2.112
				C240.269,53.952,238.639,54.299,236.762,54.401 M239.601,35.126l-30.698,1.337l12.066,22.293l33.335-1.878L239.601,35.126
				 M153.847,21.066c-1.639,0.056-3.146,0.291-4.472,0.669c-1.332,0.38-2.482,0.906-3.399,1.542
				c-0.922,0.64-1.609,1.392-2.002,2.219c-0.396,0.834-0.494,1.746-0.234,2.696c0.262,0.958,0.863,1.866,1.729,2.686
				c0.872,0.825,2.009,1.56,3.335,2.166c1.332,0.608,2.849,1.085,4.47,1.392c1.624,0.308,3.348,0.444,5.084,0.372
				c1.732-0.072,3.311-0.344,4.679-0.773c1.362-0.427,2.512-1.009,3.396-1.701c0.879-0.688,1.495-1.483,1.8-2.344
				c0.302-0.854,0.296-1.772-0.064-2.714c-0.357-0.935-1.031-1.807-1.94-2.583c-0.903-0.771-2.04-1.451-3.334-2.007
				c-1.288-0.553-2.735-0.986-4.267-1.266C157.099,21.139,155.48,21.011,153.847,21.066 M52.716,31.257l13.423-7.259l0.607,0.315
				l-13.413,7.278l12.464,6.732L65.1,38.728l-12.475-6.753l-14.511,7.873l-0.628-0.355l14.521-7.853l-11.86-6.42l0.719-0.365
				L52.716,31.257 M70.966,21.42l-33.623,1.099L33.104,43.56l36.846-1.595L70.966,21.42 M104.274,20.332l-32.426,1.06l-0.933,20.532
				l35.418-1.533L104.274,20.332 M122.888,28.632l10.519-6.917l0.663,0.302l-10.504,6.933l13.671,6.422l-0.539,0.384l-13.687-6.441
				l-11.332,7.479l-0.694-0.338l11.347-7.46l-13.035-6.135l0.569-0.348L122.888,28.632 M136.5,19.278l-31.373,1.025l2.136,20.046
				l34.16-1.478L136.5,19.278 M158.523,35.312c-1.86,0.078-3.706-0.068-5.445-0.398c-1.736-0.33-3.361-0.841-4.787-1.494
				c-1.418-0.649-2.635-1.437-3.565-2.321c-0.924-0.878-1.563-1.849-1.84-2.874c-0.274-1.017-0.165-1.99,0.262-2.881
				c0.423-0.883,1.16-1.686,2.147-2.368c0.981-0.677,2.211-1.237,3.633-1.642c1.416-0.403,3.024-0.653,4.772-0.712
				c1.742-0.059,3.468,0.078,5.099,0.376c1.634,0.298,3.178,0.759,4.553,1.349c1.382,0.592,2.598,1.316,3.564,2.139
				c0.973,0.829,1.695,1.759,2.081,2.757c0.389,1.006,0.398,1.987,0.079,2.901c-0.321,0.922-0.978,1.774-1.916,2.511
				c-0.944,0.742-2.173,1.366-3.63,1.825C162.067,34.941,160.378,35.234,158.523,35.312 M167.651,18.26l-30.328,0.991l4.995,19.582
				l32.921-1.425L167.651,18.26 M197.732,17.277l-29.285,0.957l7.655,19.137l31.696-1.372L197.732,17.277 M218.765,25.044
				l6.829-6.457l0.737,0.283l-6.815,6.472l15.119,6.006l-0.345,0.357l-15.134-6.023l-7.325,6.955l-0.765-0.316l7.339-6.938
				l-14.45-5.751l0.372-0.325L218.765,25.044 M226.893,16.324l-28.39,0.928l10.128,18.711l30.64-1.326L226.893,16.324 M71.839,3.771
				L40.974,4.499l-3.536,17.55l33.551-1.088L71.839,3.771 M102.5,3.048L72.65,3.752l-0.781,17.18l32.359-1.05L102.5,3.048
				 M132.245,2.347L103.286,3.03l1.793,16.825l31.311-1.016L132.245,2.347 M161.075,1.667l-28.069,0.662l4.205,16.482l30.27-0.982
				L161.075,1.667 M179.493,8.735l7.641-5.563l0.654,0.25l-7.629,5.577l13.333,5.282l-0.39,0.31l-13.346-5.298l-8.165,5.967
				l-0.674-0.281l8.172-5.951l-12.776-5.072l0.41-0.28L179.493,8.735 M188.986,1.01L161.813,1.65l6.462,16.153l29.23-0.948
				L188.986,1.01 M216.109,0.37l-26.407,0.623l8.572,15.838l28.339-0.919L216.109,0.37"/>
			<path d="M188.986,1.01l-0.098-0.182l0.715-0.017l0.099,0.182l26.407-0.623l10.504,15.541l0.376-0.012l0.279,0.413l-0.376,0.012
				l12.378,18.313l0.405-0.018l0.332,0.489l-0.407,0.018l14.703,21.751l0.44-0.025l0.4,0.592l-0.441,0.025l17.811,26.35l0.482-0.035
				l0.485,0.717l-0.483,0.035l22.096,32.69l0.532-0.049l0.607,0.896l-0.533,0.051l27.943,41.34l-45.232,5.412l0.322,0.596
				l-0.614,0.074l-0.629,0.074l-0.32-0.596l-47.718,5.711l0.249,0.621l-0.663,0.08l-0.651,0.078l-0.247-0.623l-50.591,6.053
				l0.166,0.65l-0.702,0.086l-0.69,0.082l-0.164-0.652l-53.637,6.418l0.073,0.684l-0.745,0.088l-0.732,0.088l-0.07-0.682
				l-56.883,6.805l-0.033,0.717l-0.777,0.094l-0.794,0.094l0.036-0.717l-60.597,7.25l10.751-53.363l-0.725,0.068l0.116-0.572
				l0.114-0.561l0.723-0.068l8.17-40.553l-0.634,0.047l0.09-0.443l0.088-0.432l0.632-0.047l6.384-31.686l-0.563,0.032l0.071-0.351
				l0.071-0.351l0.562-0.032l5.14-25.511l-0.507,0.022l0.057-0.281l0.058-0.286l0.506-0.022l4.239-21.041l-0.461,0.015l0.047-0.233
				l0.048-0.237l0.46-0.015l3.536-17.55l30.865-0.728l0.01-0.196l0.81-0.019L72.65,3.752l29.85-0.704l-0.02-0.193l0.785-0.018
				l0.021,0.192l28.959-0.683l-0.047-0.189l0.761-0.018l0.048,0.189l28.069-0.662l-0.073-0.186l0.737-0.017l0.074,0.186
				L188.986,1.01 M216.563,0l-0.344,0.008L40.632,4.112l-0.422,0.01l-0.04,0.196L0.159,198.906L0,199.677l0.846-0.104
				l324.172-39.025l0.584-0.07l-0.396-0.584L216.683,0.175L216.563,0"/>
			<path d="M65.171,138.601l-52.193,4.852l-0.723,0.068l-0.114,0.561l-0.116,0.572l0.725-0.068l52.368-4.896L65.171,138.601
				 M115.932,133.882l-49.403,4.594l-0.05,1.086l49.561-4.637L115.932,133.882 M164.17,129.398l-46.952,4.365l0.111,1.043
				l47.093-4.404L164.17,129.398 M210.007,125.136l-44.615,4.148l0.255,1.002l44.743-4.184L210.007,125.136 M253.548,121.089
				l-42.38,3.939l0.387,0.965l42.493-3.975L253.548,121.089 M295.626,117.177l-0.532,0.049l-40.44,3.76l0.503,0.93l40.544-3.791
				l0.533-0.051L295.626,117.177"/>
			<path d="M67.145,98.705l-45.82,3.32l-0.632,0.047l-0.088,0.432l-0.09,0.443l0.634-0.047l45.954-3.351L67.145,98.705
				 M111.987,95.454l-43.647,3.164l-0.039,0.844l43.77-3.191L111.987,95.454 M154.859,92.347l-41.733,3.025l0.087,0.815
				l41.844-3.052L154.859,92.347 M195.835,89.377l-39.886,2.892l0.201,0.788l39.987-2.916L195.835,89.377 M234.973,86.54
				l-38.096,2.762l0.305,0.763l38.188-2.784L234.973,86.54 M272.996,83.784l-0.482,0.035l-36.545,2.648l0.4,0.739l36.629-2.671
				l0.483-0.035L272.996,83.784"/>
			<path d="M68.695,67.336L27.85,69.637l-0.562,0.032l-0.071,0.351l-0.071,0.351l0.563-0.032l40.953-2.322L68.695,67.336
				 M108.868,65.072l-39.104,2.203l-0.031,0.681l39.203-2.223L108.868,65.072 M147.46,62.897l-37.569,2.117l0.07,0.661l37.66-2.135
				L147.46,62.897 M184.514,60.81l-36.071,2.032l0.164,0.642l36.155-2.05L184.514,60.81 M220.062,58.807l-34.604,1.95l0.249,0.624
				l34.681-1.966L220.062,58.807 M254.744,56.853l-0.44,0.025l-33.335,1.878l0.329,0.607l33.405-1.894l0.441-0.025L254.744,56.853"
				/>
			<path d="M69.95,41.965L33.104,43.56l-0.506,0.022l-0.058,0.286l-0.057,0.281l0.507-0.022l36.933-1.608L69.95,41.965
				 M106.334,40.391l-35.418,1.533l-0.025,0.552l35.499-1.546L106.334,40.391 M141.423,38.872l-34.16,1.478l0.057,0.538
				l34.235-1.491L141.423,38.872 M175.239,37.408l-32.921,1.425l0.134,0.525l32.99-1.437L175.239,37.408 M207.799,35.999
				l-31.696,1.372l0.205,0.512l31.76-1.383L207.799,35.999 M239.676,34.62l-0.405,0.018l-30.64,1.326l0.271,0.5l30.698-1.337
				l0.407-0.018L239.676,34.62"/>
			<path d="M70.989,20.96l-33.551,1.088l-0.46,0.015l-0.048,0.237l-0.047,0.233l0.461-0.015l33.623-1.099L70.989,20.96
				 M104.229,19.882l-32.359,1.05l-0.021,0.46l32.426-1.06L104.229,19.882 M136.389,18.838l-31.311,1.016l0.048,0.449l31.373-1.025
				L136.389,18.838 M167.48,17.83l-30.27,0.982l0.112,0.44l30.328-0.991L167.48,17.83 M197.506,16.855l-29.23,0.948l0.172,0.431
				l29.285-0.957L197.506,16.855 M226.989,15.899l-0.376,0.012l-28.339,0.919l0.229,0.421l28.39-0.928l0.376-0.012L226.989,15.899"
				/>
			<polyline points="189.604,0.811 188.889,0.828 188.986,1.01 197.506,16.855 197.732,17.277 207.799,35.999 208.067,36.5 
				220.062,58.807 220.388,59.415 234.973,86.54 235.37,87.28 253.548,121.089 254.048,122.019 277.17,165.025 277.49,165.621 
				278.119,165.546 278.733,165.472 278.411,164.876 255.156,121.916 254.653,120.986 236.369,87.207 235.969,86.468 
				221.298,59.363 220.969,58.756 208.902,36.463 208.631,35.963 198.503,17.252 198.274,16.831 189.702,0.993 189.604,0.811 			"/>
			<polyline points="161.739,1.465 161.002,1.482 161.075,1.667 167.48,17.83 167.651,18.26 175.239,37.408 175.442,37.921 
				184.514,60.81 184.762,61.435 195.835,89.377 196.138,90.141 210.007,125.136 210.39,126.103 228.14,170.892 228.387,171.515 
				229.038,171.437 229.701,171.357 229.452,170.736 211.555,125.994 211.168,125.029 197.182,90.064 196.877,89.302 
				185.707,61.381 185.458,60.757 176.308,37.883 176.103,37.371 168.447,18.234 168.275,17.804 161.813,1.65 161.739,1.465 			"/>
			<polyline points="132.958,2.14 132.198,2.158 132.245,2.347 136.389,18.838 136.5,19.278 141.423,38.872 141.555,39.397 
				147.46,62.897 147.621,63.541 154.859,92.347 155.058,93.136 164.17,129.398 164.422,130.402 176.158,177.111 176.322,177.763 
				177.013,177.681 177.715,177.595 177.549,176.945 165.646,130.287 165.392,129.285 156.15,93.057 155.949,92.269 148.606,63.484 
				148.442,62.842 142.452,39.358 142.318,38.833 137.323,19.251 137.211,18.812 133.006,2.329 132.958,2.14 			"/>
			<polyline points="103.265,2.837 102.48,2.855 102.5,3.048 104.229,19.882 104.274,20.332 106.334,40.391 106.389,40.929 
				108.868,65.072 108.936,65.733 111.987,95.454 112.07,96.271 115.932,133.882 116.039,134.925 121.046,183.707 121.117,184.388 
				121.849,184.3 122.594,184.212 122.521,183.529 117.329,134.806 117.218,133.763 113.213,96.188 113.126,95.372 109.961,65.675 
				109.891,65.015 107.32,40.888 107.263,40.35 105.126,20.304 105.079,19.854 103.286,3.03 103.265,2.837 			"/>
			<polyline points="72.659,3.556 71.849,3.575 71.839,3.771 70.989,20.96 70.966,21.42 69.95,41.965 69.923,42.518 68.695,67.336 
				68.662,68.017 67.145,98.705 67.103,99.549 65.171,138.601 65.118,139.689 62.595,190.699 62.56,191.416 63.354,191.322 
				64.131,191.228 64.164,190.511 66.479,139.562 66.528,138.476 68.301,99.462 68.339,98.618 69.732,67.956 69.763,67.275 
				70.89,42.475 70.916,41.923 71.848,21.392 71.869,20.932 72.65,3.752 72.659,3.556 			"/>
			<path fill="#DF3C00" d="M196.757,148.96l-0.634,0.887l23.593,14.234l0.581-0.963L196.757,148.96 M173.731,135.111l-0.683,0.813
				l21.918,13.225l0.638-0.881L173.731,135.111"/>
			<polyline fill="#DF3C00" points="207.453,131.855 195.604,148.267 194.967,149.148 181.682,167.55 182.887,168.328 
				196.123,149.847 196.757,148.96 208.559,132.48 207.453,131.855 			"/>
			<path fill="#1F3AFF" d="M186.769,121.345c-2.347,0.211-4.709,0.025-6.965-0.486c-2.251-0.512-4.385-1.35-6.284-2.441
				c-1.888-1.086-3.537-2.42-4.835-3.932c-1.286-1.5-2.224-3.17-2.709-4.945c-0.479-1.752-0.47-3.439-0.051-4.994
				c0.415-1.537,1.231-2.943,2.378-4.149c1.136-1.196,2.597-2.199,4.317-2.941c1.709-0.739,3.68-1.224,5.851-1.387
				c2.162-0.164,4.332,0.007,6.408,0.455c2.081,0.449,4.076,1.178,5.885,2.135c1.818,0.961,3.453,2.156,4.796,3.53
				c1.354,1.387,2.416,2.961,3.069,4.666c0.661,1.729,0.844,3.432,0.602,5.031c-0.245,1.619-0.924,3.131-1.979,4.457
				c-1.065,1.336-2.512,2.479-4.276,3.342C191.198,120.554,189.106,121.134,186.769,121.345 M178.208,95.27
				c-2.313,0.173-4.415,0.688-6.24,1.473c-1.837,0.79-3.399,1.857-4.616,3.131c-1.228,1.287-2.105,2.785-2.555,4.425
				c-0.455,1.658-0.472,3.463,0.033,5.338c0.512,1.898,1.51,3.688,2.881,5.293c1.386,1.623,3.149,3.055,5.17,4.221
				c2.034,1.172,4.321,2.072,6.733,2.621c2.418,0.551,4.951,0.75,7.466,0.521c2.505-0.225,4.745-0.852,6.646-1.785
				c1.888-0.928,3.433-2.154,4.568-3.59c1.125-1.42,1.845-3.041,2.101-4.775c0.252-1.713,0.051-3.533-0.663-5.377
				c-0.703-1.822-1.842-3.5-3.292-4.979c-1.438-1.464-3.184-2.736-5.125-3.76c-1.93-1.018-4.059-1.794-6.276-2.271
				C182.825,95.278,180.513,95.097,178.208,95.27"/>
			<path fill="#DF3C00" d="M138.778,111.781l-0.719,0.707l19.346,11.598l0.686-0.764L138.778,111.781 M119.757,100.415l-0.748,0.653
				l18.099,10.852l0.721-0.705L119.757,100.415"/>
			<polyline fill="#DF3C00" points="151.298,98.036 137.829,111.214 137.108,111.919 122.172,126.533 123.152,127.16 
				138.06,112.488 138.778,111.781 152.218,98.554 151.298,98.036 			"/>
			<path fill="#1F3AFF" d="M175.237,86.223c-2.101,0.147-4.204-0.018-6.201-0.441c-1.993-0.423-3.874-1.101-5.538-1.98
				c-1.655-0.874-3.091-1.943-4.209-3.153c-1.109-1.199-1.904-2.534-2.291-3.949c-0.382-1.399-0.329-2.746,0.088-3.982
				c0.413-1.225,1.185-2.344,2.247-3.301c1.054-0.95,2.396-1.743,3.965-2.326c1.56-0.58,3.349-0.954,5.308-1.069
				c1.952-0.115,3.9,0.039,5.757,0.415c1.858,0.377,3.631,0.978,5.226,1.76c1.604,0.786,3.032,1.756,4.19,2.867
				c1.167,1.12,2.063,2.386,2.587,3.754c0.529,1.383,0.63,2.741,0.353,4.013c-0.279,1.284-0.943,2.479-1.937,3.522
				c-1.002,1.05-2.336,1.943-3.943,2.611C179.221,85.634,177.332,86.076,175.237,86.223 M168.394,65.375
				c-2.089,0.122-3.996,0.52-5.662,1.137c-1.675,0.62-3.109,1.465-4.238,2.477c-1.138,1.02-1.966,2.213-2.413,3.521
				c-0.451,1.321-0.514,2.76-0.11,4.255c0.408,1.514,1.253,2.943,2.437,4.228c1.194,1.297,2.729,2.444,4.5,3.383
				c1.782,0.943,3.797,1.672,5.933,2.126c2.141,0.454,4.394,0.631,6.646,0.473c2.243-0.158,4.266-0.634,5.996-1.355
				c1.72-0.718,3.146-1.677,4.214-2.804c1.06-1.117,1.765-2.398,2.059-3.773c0.291-1.361,0.179-2.813-0.393-4.29
				c-0.564-1.459-1.525-2.811-2.775-4.005c-1.239-1.185-2.767-2.218-4.478-3.055c-1.703-0.833-3.594-1.473-5.576-1.874
				C172.553,65.417,170.476,65.254,168.394,65.375"/>
			<path fill="#1F3AFF" d="M92.283,129.82c-2.594,0.232-5.08,0.039-7.347-0.51c-2.262-0.549-4.294-1.447-5.991-2.623
				c-1.686-1.166-3.034-2.602-3.946-4.23c-0.903-1.613-1.375-3.412-1.326-5.322c0.048-1.885,0.603-3.701,1.554-5.373
				c0.94-1.652,2.271-3.164,3.891-4.463c1.604-1.285,3.495-2.363,5.58-3.164c2.071-0.795,4.34-1.316,6.72-1.496
				c2.376-0.18,4.652-0.002,6.739,0.475c2.092,0.477,4.003,1.254,5.641,2.277c1.647,1.027,3.024,2.305,4.032,3.777
				c1.017,1.486,1.659,3.174,1.822,5.008c0.166,1.855-0.175,3.688-0.941,5.412c-0.774,1.744-1.983,3.377-3.538,4.807
				c-1.57,1.445-3.491,2.682-5.667,3.617C97.315,128.953,94.873,129.587,92.283,129.82 M91.39,101.781
				c-2.536,0.189-4.955,0.746-7.165,1.592c-2.225,0.85-4.245,1.998-5.961,3.367c-1.733,1.383-3.16,2.994-4.171,4.758
				c-1.023,1.783-1.624,3.725-1.684,5.74c-0.061,2.045,0.438,3.971,1.398,5.699c0.971,1.748,2.411,3.289,4.214,4.543
				c1.816,1.262,3.993,2.229,6.417,2.816c2.43,0.59,5.096,0.799,7.876,0.547c2.775-0.25,5.392-0.932,7.738-1.945
				c2.329-1.006,4.383-2.334,6.06-3.885c1.66-1.535,2.947-3.285,3.769-5.152c0.812-1.846,1.169-3.803,0.984-5.787
				c-0.182-1.955-0.875-3.756-1.965-5.34c-1.08-1.568-2.553-2.93-4.313-4.023c-1.749-1.088-3.788-1.916-6.017-2.422
				C96.347,101.781,93.922,101.591,91.39,101.781"/>
			<path fill="#DF3C00" d="M163.709,49.101l-0.518,0.435l15.777,7.46l0.493-0.462L163.709,49.101 M147.977,41.677l-0.538,0.41
				l14.969,7.078l0.521-0.434L147.977,41.677"/>
			<polyline fill="#DF3C00" points="172.717,40.564 162.928,48.731 162.407,49.165 151.788,58.024 152.593,58.423 163.191,49.536 
				163.709,49.101 173.477,40.912 172.717,40.564 			"/>
			<path fill="#DF3C00" d="M198.37,47.39l-0.441,0.423l16.341,7.273l0.421-0.45L198.37,47.39 M182.053,40.145l-0.456,0.4
				l15.52,6.907l0.442-0.422L182.053,40.145"/>
			<polyline fill="#DF3C00" points="205.899,39.074 197.559,47.03 197.116,47.452 188.082,56.07 188.909,56.458 197.929,47.813 
				198.37,47.39 206.693,39.412 205.899,39.074 			"/>
			<path fill="#DF3C00" d="M219.516,25.343l-0.359,0.341l15.134,6.023l0.345-0.357L219.516,25.343 M204.327,19.309l-0.372,0.325
				l14.45,5.751l0.359-0.34L204.327,19.309"/>
			<polyline fill="#DF3C00" points="225.594,18.587 218.765,25.044 218.405,25.385 211.066,32.323 211.831,32.639 219.156,25.684 
				219.516,25.343 226.331,18.871 225.594,18.587 			"/>
			<path fill="#1F3AFF" d="M133.833,89.118c-2.198,0.154-4.349-0.015-6.352-0.45c-1.999-0.435-3.841-1.135-5.428-2.041
				c-1.579-0.901-2.9-2.005-3.871-3.253c-0.963-1.238-1.579-2.615-1.761-4.075c-0.18-1.443,0.083-2.833,0.705-4.108
				c0.616-1.263,1.586-2.417,2.832-3.404c1.235-0.979,2.745-1.797,4.456-2.399c1.701-0.599,3.606-0.985,5.648-1.105
				c2.036-0.12,4.025,0.038,5.886,0.423c1.864,0.387,3.604,1.004,5.133,1.809c1.537,0.808,2.866,1.807,3.895,2.952
				c1.037,1.154,1.771,2.458,2.104,3.868c0.337,1.426,0.235,2.826-0.244,4.14c-0.484,1.325-1.353,2.56-2.538,3.637
				c-1.196,1.086-2.713,2.009-4.478,2.7C138.046,88.507,136.023,88.966,133.833,89.118 M129.943,67.618
				c-2.177,0.127-4.209,0.538-6.025,1.175c-1.827,0.64-3.44,1.511-4.762,2.555c-1.333,1.052-2.374,2.283-3.038,3.631
				c-0.67,1.362-0.957,2.847-0.771,4.39c0.188,1.562,0.842,3.036,1.869,4.362c1.036,1.338,2.448,2.521,4.137,3.489
				c1.699,0.974,3.672,1.725,5.813,2.191c2.146,0.469,4.452,0.649,6.807,0.483c2.346-0.165,4.512-0.659,6.413-1.406
				c1.889-0.743,3.51-1.734,4.787-2.899c1.265-1.154,2.189-2.478,2.702-3.896c0.507-1.404,0.611-2.902,0.245-4.425
				c-0.362-1.505-1.151-2.897-2.262-4.127c-1.102-1.22-2.522-2.284-4.164-3.145c-1.633-0.856-3.489-1.514-5.477-1.926
				C134.234,67.659,132.113,67.492,129.943,67.618"/>
			<path fill="#1F3AFF" d="M33.165,185.435c-3.172,0.367-6.122,0.139-8.729-0.586c-2.6-0.721-4.844-1.934-6.621-3.529
				c-1.764-1.586-3.06-3.545-3.788-5.773c-0.72-2.203-0.881-4.662-0.395-7.279c0.479-2.574,1.544-5.061,3.048-7.35
				c1.484-2.258,3.398-4.328,5.605-6.107c2.184-1.762,4.66-3.244,7.303-4.354c2.624-1.102,5.423-1.838,8.281-2.113
				c2.847-0.275,5.501-0.068,7.873,0.541c2.377,0.611,4.483,1.631,6.218,2.984c1.747,1.361,3.125,3.066,4.027,5.043
				c0.913,1.998,1.342,4.277,1.172,6.766c-0.172,2.527-0.944,5.033-2.203,7.402c-1.276,2.402-3.051,4.662-5.203,6.654
				c-2.177,2.016-4.734,3.754-7.538,5.082C39.388,184.156,36.322,185.072,33.165,185.435 M38.015,147.193
				c-3.044,0.293-6.026,1.074-8.824,2.242c-2.82,1.18-5.464,2.756-7.797,4.631c-2.361,1.895-4.412,4.102-6.006,6.51
				c-1.617,2.443-2.766,5.1-3.29,7.854c-0.532,2.801-0.37,5.436,0.392,7.801c0.771,2.393,2.152,4.498,4.038,6.205
				c1.901,1.719,4.305,3.023,7.093,3.803c2.795,0.779,5.96,1.025,9.363,0.631c3.387-0.393,6.675-1.383,9.705-2.824
				c3.003-1.432,5.74-3.301,8.066-5.469c2.299-2.139,4.19-4.564,5.547-7.139c1.337-2.537,2.151-5.217,2.324-7.914
				c0.17-2.654-0.298-5.086-1.28-7.213c-0.97-2.104-2.446-3.92-4.313-5.367c-1.853-1.439-4.098-2.521-6.632-3.172
				C43.874,147.123,41.046,146.902,38.015,147.193"/>
			<path fill="#1F3AFF" d="M90.114,61.732c-2.057,0.111-4.027-0.044-5.822-0.419c-1.792-0.375-3.403-0.967-4.75-1.73
				c-1.34-0.758-2.415-1.683-3.145-2.725c-0.725-1.034-1.108-2.182-1.077-3.395c0.031-1.202,0.467-2.357,1.222-3.417
				c0.749-1.05,1.812-2.006,3.11-2.822c1.288-0.811,2.809-1.484,4.488-1.976c1.67-0.489,3.501-0.8,5.421-0.886
				c1.918-0.086,3.754,0.059,5.435,0.395c1.684,0.336,3.218,0.865,4.528,1.549c1.316,0.687,2.409,1.531,3.201,2.494
				c0.797,0.971,1.291,2.064,1.396,3.242c0.105,1.188-0.193,2.353-0.83,3.441c-0.643,1.098-1.628,2.117-2.885,3.002
				c-1.267,0.892-2.808,1.647-4.546,2.208C94.111,61.256,92.169,61.622,90.114,61.732 M89.543,43.805
				c-2.047,0.092-4,0.422-5.783,0.942c-1.792,0.523-3.418,1.24-4.795,2.104c-1.389,0.87-2.528,1.89-3.332,3.01
				c-0.812,1.131-1.282,2.366-1.321,3.652c-0.039,1.3,0.367,2.529,1.139,3.637c0.778,1.117,1.926,2.108,3.359,2.921
				c1.441,0.818,3.167,1.454,5.086,1.855c1.923,0.402,4.034,0.568,6.238,0.449c2.201-0.12,4.281-0.513,6.152-1.118
				c1.86-0.602,3.507-1.411,4.861-2.368c1.342-0.949,2.393-2.04,3.076-3.215c0.676-1.165,0.991-2.41,0.873-3.681
				c-0.117-1.258-0.647-2.426-1.503-3.461c-0.848-1.027-2.018-1.927-3.423-2.658c-1.399-0.728-3.037-1.291-4.832-1.649
				C93.545,43.868,91.588,43.713,89.543,43.805"/>
			<path fill="#DF3C00" d="M244.174,143.96l-0.489,0.85l24.627,13.67l0.441-0.922L244.174,143.96 M220.087,130.634l-0.532,0.779
				l22.922,12.725l0.493-0.846L220.087,130.634"/>
			<polyline fill="#DF3C00" points="252.14,127.539 242.97,143.292 242.477,144.138 232.227,161.75 233.479,162.496 243.685,144.81 
				244.174,143.96 253.301,128.14 252.14,127.539 			"/>
			<path fill="#DF3C00" d="M123.565,28.95l-0.554,0.366l13.687,6.441l0.539-0.384L123.565,28.95 M109.866,22.514l-0.569,0.348
				l13.035,6.135l0.556-0.365L109.866,22.514"/>
			<polyline fill="#DF3C00" points="133.407,21.715 122.888,28.632 122.332,28.997 110.985,36.457 111.679,36.795 123.011,29.316 
				123.565,28.95 134.07,22.017 133.407,21.715 			"/>
			<path fill="#1F3AFF" d="M230.752,117.4c-2.231,0.199-4.535,0.02-6.781-0.477c-2.241-0.494-4.416-1.303-6.4-2.357
				c-1.973-1.049-3.751-2.336-5.215-3.795c-1.451-1.447-2.59-3.061-3.306-4.773c-0.707-1.691-0.935-3.322-0.746-4.822
				c0.187-1.484,0.779-2.841,1.718-4.006c0.931-1.155,2.203-2.123,3.761-2.841c1.549-0.712,3.384-1.179,5.456-1.335
				c2.069-0.156,4.19,0.01,6.261,0.445c2.073,0.436,4.103,1.143,5.981,2.069c1.89,0.932,3.633,2.088,5.119,3.417
				c1.498,1.341,2.739,2.862,3.604,4.51c0.876,1.668,1.287,3.313,1.273,4.857c-0.014,1.561-0.461,3.02-1.297,4.297
				c-0.844,1.287-2.082,2.387-3.667,3.217C234.92,116.642,232.98,117.201,230.752,117.4 M218.873,92.219
				c-2.209,0.166-4.167,0.662-5.82,1.42c-1.664,0.763-3.025,1.793-4.022,3.022c-1.007,1.242-1.646,2.689-1.852,4.273
				c-0.207,1.602,0.028,3.344,0.778,5.153c0.759,1.834,1.973,3.561,3.521,5.111c1.563,1.564,3.465,2.947,5.577,4.072
				c2.125,1.131,4.456,2,6.858,2.531c2.408,0.535,4.877,0.727,7.269,0.512c2.388-0.215,4.466-0.816,6.172-1.715
				c1.695-0.893,3.019-2.072,3.919-3.455c0.891-1.369,1.364-2.932,1.373-4.604c0.009-1.652-0.436-3.41-1.378-5.193
				c-0.93-1.76-2.261-3.381-3.865-4.811c-1.59-1.417-3.454-2.648-5.472-3.64c-2.007-0.985-4.172-1.738-6.384-2.202
				C223.341,92.231,221.079,92.054,218.873,92.219"/>
			<path fill="#1F3AFF" d="M236.408,53.825c-1.754,0.095-3.571-0.049-5.35-0.389c-1.774-0.34-3.505-0.875-5.091-1.561
				c-1.579-0.683-3.013-1.515-4.204-2.451c-1.183-0.93-2.125-1.962-2.737-3.053c-0.606-1.082-0.832-2.121-0.724-3.074
				c0.107-0.945,0.542-1.806,1.259-2.54c0.711-0.729,1.702-1.335,2.928-1.776c1.221-0.439,2.678-0.717,4.333-0.791
				c1.653-0.074,3.355,0.06,5.021,0.367c1.668,0.308,3.304,0.789,4.822,1.41c1.524,0.623,2.934,1.388,4.137,2.259
				c1.212,0.877,2.218,1.865,2.924,2.926c0.712,1.071,1.054,2.118,1.057,3.095c0.003,0.985-0.338,1.898-0.988,2.69
				c-0.654,0.797-1.621,1.471-2.862,1.969C239.684,53.407,238.162,53.73,236.408,53.825 M226.513,37.685
				c-1.765,0.079-3.32,0.374-4.624,0.841c-1.311,0.47-2.37,1.115-3.132,1.892c-0.769,0.783-1.237,1.701-1.355,2.709
				c-0.12,1.018,0.116,2.129,0.762,3.287c0.651,1.168,1.656,2.274,2.92,3.27c1.273,1.004,2.806,1.896,4.496,2.628
				c1.698,0.736,3.551,1.309,5.452,1.673c1.904,0.365,3.851,0.518,5.73,0.416c1.877-0.102,3.507-0.449,4.842-0.987
				c1.328-0.535,2.362-1.257,3.061-2.112c0.693-0.848,1.056-1.826,1.049-2.881c-0.007-1.045-0.375-2.166-1.141-3.311
				c-0.759-1.135-1.837-2.189-3.135-3.125c-1.287-0.929-2.794-1.744-4.423-2.408c-1.62-0.661-3.367-1.173-5.146-1.5
				C230.092,37.75,228.276,37.606,226.513,37.685"/>
			<path fill="#DF3C00" d="M53.334,31.591l-0.709,0.384L65.1,38.728l0.698-0.405L53.334,31.591 M40.866,24.855l-0.719,0.365
				l11.86,6.42l0.709-0.384L40.866,24.855"/>
			<polyline fill="#DF3C00" points="66.14,23.998 52.716,31.257 52.007,31.641 37.485,39.493 38.114,39.848 52.625,31.975 
				53.334,31.591 66.747,24.313 66.14,23.998 			"/>
			<path fill="#DF3C00" d="M180.159,8.999l-0.402,0.294l13.346,5.298l0.39-0.31L180.159,8.999 M166.724,3.676l-0.41,0.28
				l12.776,5.072l0.403-0.293L166.724,3.676"/>
			<polyline fill="#DF3C00" points="187.134,3.171 179.493,8.735 179.09,9.028 170.918,14.979 171.592,15.26 179.757,9.292 
				180.159,8.999 187.788,3.422 187.134,3.171 			"/>
			<path fill="#1F3AFF" d="M158.357,34.807c-1.736,0.072-3.46-0.064-5.084-0.372c-1.621-0.307-3.139-0.784-4.47-1.392
				c-1.326-0.606-2.463-1.34-3.335-2.166c-0.866-0.82-1.467-1.728-1.729-2.686c-0.26-0.951-0.162-1.862,0.234-2.696
				c0.393-0.828,1.08-1.58,2.002-2.219c0.917-0.636,2.068-1.161,3.399-1.542c1.325-0.378,2.833-0.613,4.472-0.669
				c1.634-0.055,3.252,0.073,4.78,0.353c1.531,0.28,2.979,0.712,4.267,1.266c1.294,0.556,2.431,1.235,3.334,2.007
				c0.909,0.776,1.583,1.648,1.94,2.583c0.36,0.941,0.366,1.859,0.064,2.714c-0.305,0.861-0.921,1.657-1.8,2.344
				c-0.885,0.692-2.034,1.274-3.396,1.701C161.668,34.463,160.09,34.735,158.357,34.807 M153.701,20.622
				c-1.748,0.059-3.356,0.309-4.772,0.712c-1.422,0.404-2.652,0.964-3.633,1.642c-0.988,0.682-1.725,1.484-2.147,2.368
				c-0.427,0.891-0.536,1.865-0.262,2.881c0.276,1.025,0.916,1.996,1.84,2.874c0.931,0.884,2.147,1.671,3.565,2.321
				c1.425,0.653,3.05,1.164,4.787,1.494c1.739,0.33,3.585,0.476,5.445,0.398c1.854-0.078,3.544-0.371,5.008-0.832
				c1.457-0.458,2.686-1.083,3.63-1.825c0.938-0.737,1.595-1.589,1.916-2.511c0.319-0.914,0.31-1.896-0.079-2.901
				c-0.386-0.998-1.108-1.928-2.081-2.757c-0.967-0.823-2.183-1.547-3.564-2.139c-1.375-0.59-2.919-1.051-4.553-1.349
				C157.169,20.7,155.443,20.563,153.701,20.622"/>
			<path fill="#1F3AFF" d="M298.371,154.886c-2.374,0.271-4.918,0.074-7.478-0.518c-2.554-0.59-5.11-1.568-7.519-2.855
				c-2.393-1.277-4.629-2.852-6.564-4.643c-1.917-1.773-3.533-3.752-4.713-5.857c-1.165-2.076-1.795-4.082-1.944-5.928
				c-0.148-1.826,0.173-3.498,0.912-4.936c0.732-1.426,1.876-2.623,3.387-3.516c1.5-0.887,3.367-1.477,5.563-1.688
				c2.191-0.213,4.516-0.031,6.849,0.48c2.338,0.512,4.694,1.354,6.942,2.469c2.263,1.119,4.424,2.518,6.352,4.131
				c1.945,1.629,3.659,3.484,5,5.5c1.358,2.043,2.21,4.064,2.579,5.969c0.374,1.928,0.254,3.734-0.334,5.322
				c-0.594,1.604-1.662,2.979-3.174,4.025C302.706,153.898,300.74,154.613,298.371,154.886 M279.438,124.005
				c-2.34,0.225-4.332,0.85-5.935,1.793c-1.613,0.949-2.839,2.225-3.626,3.74c-0.795,1.531-1.146,3.314-0.995,5.262
				c0.151,1.973,0.816,4.115,2.054,6.336c1.255,2.252,2.979,4.373,5.026,6.273c2.07,1.922,4.464,3.615,7.027,4.988
				c2.581,1.383,5.323,2.438,8.063,3.072c2.746,0.637,5.475,0.85,8.019,0.555c2.538-0.293,4.644-1.064,6.271-2.199
				c1.615-1.125,2.755-2.605,3.384-4.328c0.623-1.705,0.744-3.643,0.337-5.707c-0.402-2.039-1.32-4.199-2.779-6.383
				c-1.438-2.152-3.274-4.129-5.355-5.865c-2.062-1.719-4.37-3.207-6.785-4.398c-2.399-1.186-4.913-2.082-7.405-2.627
				C284.251,123.974,281.773,123.781,279.438,124.005"/>
		</g>
	</g>
</g>
</svg>
